<?xml version="1.0" encoding="UTF-8" standalone="no"?>
<svg
   viewBox="0 0 24 24"
   version="1.1"
   id="svg19"
   sodipodi:docname="moon.inline.svg"
   inkscape:version="1.1 (c68e22c387, 2021-05-23)"
   xmlns:inkscape="http://www.inkscape.org/namespaces/inkscape"
   xmlns:sodipodi="http://sodipodi.sourceforge.net/DTD/sodipodi-0.dtd"
   xmlns="http://www.w3.org/2000/svg"
   xmlns:svg="http://www.w3.org/2000/svg">
  <defs
     id="defs23" />
  <sodipodi:namedview
     id="namedview21"
     pagecolor="#ffffff"
     bordercolor="#999999"
     borderopacity="1"
     inkscape:pageshadow="0"
     inkscape:pageopacity="0"
     inkscape:pagecheckerboard="0"
     showgrid="false"
     inkscape:zoom="48.708333"
     inkscape:cx="12"
     inkscape:cy="11.989735"
     inkscape:window-width="1278"
     inkscape:window-height="1368"
     inkscape:window-x="-7"
     inkscape:window-y="40"
     inkscape:window-maximized="0"
     inkscape:current-layer="svg19" />
  <path
     d="M12,2A10,10,0,1,0,22,12,10,10,0,0,0,12,2Zm0,18A8,8,0,0,1,9.791,4.317a9.967,9.967,0,0,0,5.032,15.159A7.947,7.947,0,0,1,12,20Z"
     id="path17" />
  <path
     style="fill:#ffffff;stroke-width:0.0205304"
     d="m 11.435415,21.975967 c -0.04517,-0.0044 -0.197605,-0.01766 -0.338751,-0.02958 C 8.8291327,21.754939 6.6055186,20.716173 4.9672695,19.083029 3.8471975,17.966448 3.0516846,16.69409 2.5458663,15.210192 1.4829622,12.091995 2.0318994,8.6531507 4.0152552,6.0051326 5.0493454,4.624498 6.5181021,3.4702722 8.0711403,2.8178063 9.0245601,2.4172533 9.9454351,2.1786163 10.997361,2.059501 c 0.443588,-0.05023 1.56169,-0.05023 2.005278,0 2.076195,0.235099 3.867296,0.9979865 5.454162,2.3231039 0.305699,0.255275 0.860312,0.8060268 1.127101,1.1192532 0.842753,0.9894426 1.47446,2.1063092 1.882735,3.3286996 0.694048,2.0780063 0.694048,4.2608783 0,6.3388843 -0.712338,2.132766 -2.110468,3.944802 -3.999709,5.183793 -1.330698,0.87269 -2.818121,1.403077 -4.442701,1.584183 -0.276971,0.03088 -1.388467,0.05784 -1.588812,0.03855 z m 1.368325,-2.010599 c 0.372358,-0.03814 0.722785,-0.09846 1.085054,-0.186789 0.292438,-0.0713 0.898227,-0.262266 0.929555,-0.293026 0.0088,-0.0086 -0.09285,-0.05514 -0.225834,-0.103385 C 13.853899,19.114199 13.077384,18.721197 12.432853,18.289141 11.906237,17.936128 11.487657,17.593718 11.007079,17.122818 10.400171,16.528132 9.958514,15.981899 9.5311432,15.297411 8.7304279,14.014963 8.2508325,12.635807 8.0667825,11.086399 8.0222577,10.711569 8.0048896,9.7003444 8.0362189,9.3068879 8.1738802,7.5780433 8.7077929,5.9943164 9.6268894,4.5885372 9.7228619,4.4417451 9.793798,4.3189735 9.7845251,4.3157116 9.7569395,4.3060075 9.3824742,4.4306158 9.0744226,4.5520073 7.0238121,5.3600764 5.3909859,6.9891305 4.5824001,9.0336521 4.1691952,10.078447 3.9915031,11.076624 4.0196758,12.194729 c 0.029911,1.187106 0.2824946,2.236168 0.7934443,3.295434 1.4571848,3.020935 4.6624458,4.816065 7.9906199,4.475205 z"
     id="path179" />
  <path
     style="fill:#000000;stroke-width:0.0205304"
     d="M 11.16852,21.944739 C 10.379303,21.87125 9.6742408,21.729037 8.9732051,21.501939 6.0390872,20.551443 3.7145823,18.332607 2.6525286,15.468594 1.8554853,13.319227 1.8181458,11.007872 2.5454177,8.8383234 3.2100512,6.8556337 4.4603586,5.1569219 6.1693756,3.914686 7.527397,2.9275788 9.050198,2.3304827 10.819504,2.0913528 11.135294,2.0486723 11.247676,2.0441788 12,2.044152 c 0.740365,-2.65e-5 0.867476,0.00488 1.159966,0.044731 2.065546,0.2814588 3.750591,1.0191923 5.314718,2.3268487 0.25984,0.2172339 0.900551,0.8576951 1.120288,1.1198499 1.348642,1.6089846 2.137555,3.4935572 2.345151,5.6021434 0.01461,0.148384 0.02628,0.531264 0.02628,0.862275 0,0.604815 -0.01987,0.905267 -0.09301,1.40633 -0.382221,2.618557 -1.779014,4.983294 -3.868258,6.548871 -0.748744,0.561071 -1.513519,0.990731 -2.350727,1.320666 -0.96674,0.380983 -2.031269,0.621305 -2.974037,0.671402 -0.431585,0.02294 -1.253148,0.02156 -1.511849,-0.0025 z m 1.704021,-1.977765 c 0.373133,-0.04303 0.712828,-0.103741 1.036783,-0.185298 0.334958,-0.08433 0.923867,-0.273059 0.923867,-0.296077 0,-0.01965 -0.05528,-0.0441 -0.462341,-0.204445 C 13.359577,18.882799 12.458789,18.353855 11.630709,17.672138 11.332931,17.426993 10.648392,16.752558 10.395426,16.45509 9.3229894,15.193986 8.5701586,13.655088 8.236079,12.041061 8.0804034,11.288951 8.0377625,10.844248 8.037689,9.9720424 8.0376068,9.0009993 8.1544844,8.1665509 8.4180267,7.2566117 8.6946718,6.3014322 9.0271511,5.5810535 9.67786,4.5269461 9.8307004,4.2793546 9.8269362,4.2762677 9.5037149,4.3841314 6.8820323,5.2590256 4.9107285,7.3817558 4.2423819,10.049615 4.0656033,10.755267 4.023913,11.1239 4.0241256,11.97947 c 1.807e-4,0.728 0.01697,0.94634 0.1152409,1.498717 0.3023862,1.699698 1.2448896,3.362689 2.5675534,4.530296 1.25557,1.108378 2.8968524,1.823429 4.5129261,1.966128 0.141146,0.01246 0.293584,0.02626 0.338751,0.03066 0.17329,0.01689 1.059361,-0.0089 1.313944,-0.0383 z"
     id="path81" />
  <path
     style="fill:#001219;stroke-width:0.0205304;fill-opacity:1"
     d="M 11.045338,21.924805 C 10.06015,21.811084 9.2325636,21.609109 8.3866553,21.275949 5.4801288,20.131214 3.2728731,17.707729 2.4245328,14.729759 2.2636379,14.164962 2.1647376,13.666757 2.0925305,13.057314 2.048025,12.681679 2.0310666,11.716563 2.0618634,11.312022 2.2474222,8.8745556 3.2695854,6.6461462 4.9832087,4.9432213 6.455634,3.4799887 8.2816146,2.5385487 10.347305,2.1775975 10.93811,2.0743624 11.002821,2.0691483 11.821882,2.0587836 c 0.889438,-0.011255 1.130188,0.00279 1.70763,0.099649 1.797884,0.3015616 3.276748,0.9545987 4.701364,2.0760289 0.312796,0.2462275 1.102202,1.0154154 1.374742,1.3395334 1.265797,1.5053459 2.016574,3.2382213 2.294882,5.2968351 0.06109,0.451871 0.06629,1.722335 0.0089,2.186484 -0.288398,2.334367 -1.267861,4.375422 -2.867151,5.974712 -1.410036,1.410036 -3.188383,2.356746 -5.163762,2.748948 -0.648306,0.128719 -0.904127,0.150703 -1.827203,0.157025 -0.46296,0.0032 -0.915654,-0.0028 -1.005988,-0.01319 z m 1.899059,-1.957853 c 0.589042,-0.07091 1.119865,-0.195494 1.734816,-0.407173 0.227,-0.07814 0.234884,-0.07171 -0.410607,-0.334701 -1.001639,-0.408092 -1.962043,-0.989533 -2.730954,-1.653354 -0.312274,-0.269594 -0.96508,-0.927077 -1.194263,-1.20282 -1.2177893,-1.465188 -1.973842,-3.20853 -2.2374957,-5.159323 -0.031323,-0.23176 -0.037459,-0.420085 -0.037459,-1.149701 0,-0.5869504 0.00891,-0.9531775 0.027213,-1.1189047 C 8.2084636,7.9196496 8.500961,6.8525004 8.9200351,5.9332763 9.0619303,5.6220341 9.2855321,5.2080661 9.5597304,4.7489683 9.6823749,4.5436211 9.7827203,4.3611575 9.7827203,4.3434935 c 0,-0.04991 -0.072132,-0.039591 -0.3294475,0.047132 C 8.1240309,4.8386183 6.8857015,5.6667967 5.9637141,6.724397 4.9511573,7.885888 4.2668325,9.393218 4.0610493,10.915307 c -0.028932,0.213997 -0.035573,0.419631 -0.035365,1.094958 2.819e-4,0.911484 0.012353,1.046229 0.1534146,1.712533 0.4462618,2.107913 1.8293673,4.03849 3.6840316,5.142273 1.0116066,0.602046 2.1171846,0.984049 3.1822075,1.099527 0.158084,0.01714 0.31976,0.0352 0.359281,0.04013 0.158012,0.01971 1.293641,-0.0081 1.539778,-0.03777 z"
     id="path860" />
</svg>
