<?xml version="1.0" encoding="UTF-8" standalone="no"?>
<svg
   viewBox="0 0 24 24"
   version="1.1"
   id="svg19"
   sodipodi:docname="moon.inline.svg"
   inkscape:version="1.1 (c68e22c387, 2021-05-23)"
   xmlns:inkscape="http://www.inkscape.org/namespaces/inkscape"
   xmlns:sodipodi="http://sodipodi.sourceforge.net/DTD/sodipodi-0.dtd"
   xmlns="http://www.w3.org/2000/svg"
   xmlns:svg="http://www.w3.org/2000/svg">
  <defs
     id="defs23" />
  <sodipodi:namedview
     id="namedview21"
     pagecolor="#ffffff"
     bordercolor="#999999"
     borderopacity="1"
     inkscape:pageshadow="0"
     inkscape:pageopacity="0"
     inkscape:pagecheckerboard="0"
     showgrid="false"
     inkscape:zoom="48.708333"
     inkscape:cx="12"
     inkscape:cy="12"
     inkscape:window-width="2560"
     inkscape:window-height="1377"
     inkscape:window-x="-8"
     inkscape:window-y="32"
     inkscape:window-maximized="1"
     inkscape:current-layer="svg19" />
  <path
     d="M12,2A10,10,0,1,0,22,12,10,10,0,0,0,12,2Zm0,18A8,8,0,0,1,9.791,4.317a9.967,9.967,0,0,0,5.032,15.159A7.947,7.947,0,0,1,12,20Z"
     id="path17" />
  <path
     style="fill:#ffffff;stroke-width:0.0205304"
     d="m 11.435415,21.975967 c -0.04517,-0.0044 -0.197605,-0.01766 -0.338751,-0.02958 C 8.8291327,21.754939 6.6055186,20.716173 4.9672695,19.083029 3.8471975,17.966448 3.0516846,16.69409 2.5458663,15.210192 1.4829622,12.091995 2.0318994,8.6531507 4.0152552,6.0051326 5.0493454,4.624498 6.5181021,3.4702722 8.0711403,2.8178063 9.0245601,2.4172533 9.9454351,2.1786163 10.997361,2.059501 c 0.443588,-0.05023 1.56169,-0.05023 2.005278,0 2.076195,0.235099 3.867296,0.9979865 5.454162,2.3231039 0.305699,0.255275 0.860312,0.8060268 1.127101,1.1192532 0.842753,0.9894426 1.47446,2.1063092 1.882735,3.3286996 0.694048,2.0780063 0.694048,4.2608783 0,6.3388843 -0.712338,2.132766 -2.110468,3.944802 -3.999709,5.183793 -1.330698,0.87269 -2.818121,1.403077 -4.442701,1.584183 -0.276971,0.03088 -1.388467,0.05784 -1.588812,0.03855 z m 1.368325,-2.010599 c 0.372358,-0.03814 0.722785,-0.09846 1.085054,-0.186789 0.292438,-0.0713 0.898227,-0.262266 0.929555,-0.293026 0.0088,-0.0086 -0.09285,-0.05514 -0.225834,-0.103385 C 13.853899,19.114199 13.077384,18.721197 12.432853,18.289141 11.906237,17.936128 11.487657,17.593718 11.007079,17.122818 10.400171,16.528132 9.958514,15.981899 9.5311432,15.297411 8.7304279,14.014963 8.2508325,12.635807 8.0667825,11.086399 8.0222577,10.711569 8.0048896,9.7003444 8.0362189,9.3068879 8.1738802,7.5780433 8.7077929,5.9943164 9.6268894,4.5885372 9.7228619,4.4417451 9.793798,4.3189735 9.7845251,4.3157116 9.7569395,4.3060075 9.3824742,4.4306158 9.0744226,4.5520073 7.0238121,5.3600764 5.3909859,6.9891305 4.5824001,9.0336521 4.1691952,10.078447 3.9915031,11.076624 4.0196758,12.194729 c 0.029911,1.187106 0.2824946,2.236168 0.7934443,3.295434 1.4571848,3.020935 4.6624458,4.816065 7.9906199,4.475205 z"
     id="path179" />
  <path
     style="fill:#000000;stroke-width:0.0205304"
     d="M 11.16852,21.944739 C 10.379303,21.87125 9.6742408,21.729037 8.9732051,21.501939 6.0390872,20.551443 3.7145823,18.332607 2.6525286,15.468594 1.8554853,13.319227 1.8181458,11.007872 2.5454177,8.8383234 3.2100512,6.8556337 4.4603586,5.1569219 6.1693756,3.914686 7.527397,2.9275788 9.050198,2.3304827 10.819504,2.0913528 11.135294,2.0486723 11.247676,2.0441788 12,2.044152 c 0.740365,-2.65e-5 0.867476,0.00488 1.159966,0.044731 2.065546,0.2814588 3.750591,1.0191923 5.314718,2.3268487 0.25984,0.2172339 0.900551,0.8576951 1.120288,1.1198499 1.348642,1.6089846 2.137555,3.4935572 2.345151,5.6021434 0.01461,0.148384 0.02628,0.531264 0.02628,0.862275 0,0.604815 -0.01987,0.905267 -0.09301,1.40633 -0.382221,2.618557 -1.779014,4.983294 -3.868258,6.548871 -0.748744,0.561071 -1.513519,0.990731 -2.350727,1.320666 -0.96674,0.380983 -2.031269,0.621305 -2.974037,0.671402 -0.431585,0.02294 -1.253148,0.02156 -1.511849,-0.0025 z m 1.704021,-1.977765 c 0.373133,-0.04303 0.712828,-0.103741 1.036783,-0.185298 0.334958,-0.08433 0.923867,-0.273059 0.923867,-0.296077 0,-0.01965 -0.05528,-0.0441 -0.462341,-0.204445 C 13.359577,18.882799 12.458789,18.353855 11.630709,17.672138 11.332931,17.426993 10.648392,16.752558 10.395426,16.45509 9.3229894,15.193986 8.5701586,13.655088 8.236079,12.041061 8.0804034,11.288951 8.0377625,10.844248 8.037689,9.9720424 8.0376068,9.0009993 8.1544844,8.1665509 8.4180267,7.2566117 8.6946718,6.3014322 9.0271511,5.5810535 9.67786,4.5269461 9.8307004,4.2793546 9.8269362,4.2762677 9.5037149,4.3841314 6.8820323,5.2590256 4.9107285,7.3817558 4.2423819,10.049615 4.0656033,10.755267 4.023913,11.1239 4.0241256,11.97947 c 1.807e-4,0.728 0.01697,0.94634 0.1152409,1.498717 0.3023862,1.699698 1.2448896,3.362689 2.5675534,4.530296 1.25557,1.108378 2.8968524,1.823429 4.5129261,1.966128 0.141146,0.01246 0.293584,0.02626 0.338751,0.03066 0.17329,0.01689 1.059361,-0.0089 1.313944,-0.0383 z"
     id="path81" />
</svg>
