<?xml version="1.0" encoding="UTF-8" standalone="no"?>
<svg
   viewBox="0 0 25 25"
   version="1.1"
   id="svg174"
   sodipodi:docname="sun.inline.svg"
   inkscape:version="1.1 (c68e22c387, 2021-05-23)"
   xmlns:inkscape="http://www.inkscape.org/namespaces/inkscape"
   xmlns:sodipodi="http://sodipodi.sourceforge.net/DTD/sodipodi-0.dtd"
   xmlns="http://www.w3.org/2000/svg"
   xmlns:svg="http://www.w3.org/2000/svg">
  <defs
     id="defs178" />
  <sodipodi:namedview
     id="namedview176"
     pagecolor="#ffffff"
     bordercolor="#999999"
     borderopacity="1"
     inkscape:pageshadow="0"
     inkscape:pageopacity="0"
     inkscape:pagecheckerboard="0"
     showgrid="false"
     inkscape:zoom="34.92"
     inkscape:cx="12.5"
     inkscape:cy="12.5"
     inkscape:window-width="2560"
     inkscape:window-height="1377"
     inkscape:window-x="-8"
     inkscape:window-y="32"
     inkscape:window-maximized="1"
     inkscape:current-layer="svg174" />
  <title
     id="title153">Artboard-1</title>
  <g
     id="Sun">
    <circle
       cx="12.5"
       cy="12.5"
       r="7.5"
       style="fill:#232326"
       id="circle155" />
    <rect
       x="12"
       y="1"
       width="1"
       height="3"
       style="fill:#232326"
       id="rect157" />
    <rect
       x="4.929"
       y="3.9288"
       width="0.9999"
       height="3.0004"
       transform="translate(-2.2487 5.429) rotate(-45)"
       style="fill:#232326"
       id="rect159" />
    <rect
       x="1"
       y="12"
       width="3"
       height="1"
       style="fill:#232326"
       id="rect161" />
    <rect
       x="3.9288"
       y="19.0711"
       width="3.0004"
       height="0.9999"
       transform="translate(-12.2487 9.5711) rotate(-45)"
       style="fill:#232326"
       id="rect163" />
    <rect
       x="12"
       y="21"
       width="1"
       height="3"
       style="fill:#232326"
       id="rect165" />
    <rect
       x="19.0711"
       y="18.0709"
       width="0.9999"
       height="3.0004"
       transform="translate(-8.1066 19.571) rotate(-45)"
       style="fill:#232326"
       id="rect167" />
    <rect
       x="21"
       y="12"
       width="3"
       height="1"
       style="fill:#232326"
       id="rect169" />
    <rect
       x="18.0709"
       y="4.929"
       width="3.0004"
       height="0.9999"
       transform="translate(1.8934 15.4289) rotate(-45)"
       style="fill:#232326"
       id="rect171" />
  </g>
  <path
     style="fill:#ffffff;stroke-width:0.0286369"
     d="M 11.852342,19.959484 C 10.378208,19.815862 9.0560384,19.292091 7.8894616,18.389608 7.5536767,18.129839 6.9557434,17.540403 6.679103,17.196449 5.8395398,16.1526 5.3083068,14.947385 5.0924142,13.596709 c -0.073877,-0.462193 -0.073877,-1.731225 0,-2.193418 C 5.3601597,9.7282111 6.0903414,8.3142179 7.2917531,7.1442829 7.8721234,6.5791181 8.4535793,6.1618916 9.1390006,5.8187814 11.474712,4.6495642 14.164214,4.7610793 16.408935,6.1202155 c 0.862096,0.5219832 1.767018,1.3985397 2.338507,2.2652069 0.586781,0.8898565 0.952966,1.8297836 1.146654,2.9432466 0.05628,0.323541 0.06427,0.469228 0.06427,1.171331 0,0.862785 -0.03291,1.164119 -0.198321,1.815661 -0.534147,2.104016 -1.971357,3.898622 -3.895216,4.863851 -0.743085,0.372817 -1.470419,0.603511 -2.289006,0.726021 -0.431739,0.06461 -1.32654,0.09262 -1.723486,0.05395 z"
     id="path272" />
  <path
     style="fill:#ffffff;stroke-width:0.0286369"
     d="M 12.013173,2.4914089 V 1.002291 H 12.5 12.986827 v 1.4891179 1.489118 H 12.5 12.013173 Z"
     id="path311" />
  <path
     style="fill:#ffffff;stroke-width:0.0286369"
     d="M 18.528113,6.4719851 18.185017,6.1279923 19.229819,5.082896 20.274621,4.0377997 20.618313,4.3814915 20.962004,4.7251833 19.916607,5.7705806 18.87121,6.8159779 Z"
     id="path350" />
  <path
     style="fill:#ffffff;stroke-width:0.0286369"
     d="m 21.005155,12.5 v -0.472509 h 1.489118 1.489118 V 12.5 12.972509 h -1.489118 -1.489118 z"
     id="path389" />
  <path
     style="fill:#ffffff;stroke-width:0.0286369"
     d="m 19.229668,19.916953 -1.044953,-1.045247 0.343642,-0.343643 0.343643,-0.343642 1.044953,1.045247 1.044953,1.045247 -0.343643,0.343643 -0.343642,0.343642 z"
     id="path428" />
  <path
     style="fill:#ffffff;stroke-width:0.0286369"
     d="M 12.013173,22.508591 V 21.019473 H 12.5 12.986827 v 1.489118 1.489118 H 12.5 12.013173 Z"
     id="path467" />
  <path
     style="fill:#ffffff;stroke-width:0.0286369"
     d="M 4.3814924,20.618606 4.0383958,20.274613 5.0831979,19.229517 6.128,18.184421 6.4716918,18.528112 6.8153836,18.871804 5.7699863,19.917201 4.724589,20.962599 Z"
     id="path506" />
  <path
     style="fill:#ffffff;stroke-width:0.0286369"
     d="m 1.0166094,12.5 v -0.472509 h 1.489118 1.489118 V 12.5 12.972509 h -1.489118 -1.489118 z"
     id="path545" />
  <path
     style="fill:#ffffff;stroke-width:0.0286369"
     d="M 5.083047,5.7703322 4.0380939,4.7250849 4.3817365,4.3814423 4.7253791,4.0377997 5.7703322,5.083047 6.8152853,6.1282942 6.4716426,6.4719369 6.128,6.8155795 Z"
     id="path584" />
</svg>
