<?xml version="1.0" encoding="UTF-8" standalone="no"?>
<!-- Generator: Adobe Illustrator 18.1.1, SVG Export Plug-In . SVG Version: 6.00 Build 0)  -->

<svg
   version="1.1"
   id="Capa_1"
   x="0px"
   y="0px"
   viewBox="0 0 612.001 612.001"
   style="enable-background:new 0 0 612.001 612.001;"
   xml:space="preserve"
   sodipodi:docname="sun.inline.svg"
   inkscape:version="1.1 (c68e22c387, 2021-05-23)"
   xmlns:inkscape="http://www.inkscape.org/namespaces/inkscape"
   xmlns:sodipodi="http://sodipodi.sourceforge.net/DTD/sodipodi-0.dtd"
   xmlns="http://www.w3.org/2000/svg"
   xmlns:svg="http://www.w3.org/2000/svg"><defs
   id="defs57" /><sodipodi:namedview
   id="namedview55"
   pagecolor="#ffffff"
   bordercolor="#999999"
   borderopacity="1"
   inkscape:pageshadow="0"
   inkscape:pageopacity="0"
   inkscape:pagecheckerboard="0"
   showgrid="false"
   inkscape:zoom="1.4264683"
   inkscape:cx="366.99028"
   inkscape:cy="305.64997"
   inkscape:window-width="1278"
   inkscape:window-height="1368"
   inkscape:window-x="-7"
   inkscape:window-y="40"
   inkscape:window-maximized="0"
   inkscape:current-layer="Capa_1" />
<g
   id="g22">
	<g
   id="g20">
		<path
   d="M306,149.341c-86.382,0-156.661,70.278-156.661,156.661c0,86.382,70.278,156.66,156.661,156.66    s156.66-70.278,156.66-156.66C462.66,219.618,392.382,149.341,306,149.341z"
   id="path2" />
		<path
   d="M274.194,117.278h63.612c5.032,0,9.356-2.101,11.863-5.763c2.508-3.662,2.9-8.453,1.079-13.146L315.749,8.257    c-2.789-7.184-7.305-8.256-9.749-8.256s-6.96,1.073-9.749,8.255l-35,90.114c-1.821,4.692-1.427,9.482,1.079,13.145    C264.837,115.178,269.162,117.278,274.194,117.278z"
   id="path4" />
		<path
   d="M337.806,494.723h-63.612c-5.032,0-9.357,2.102-11.863,5.764c-2.506,3.663-2.9,8.453-1.079,13.145l34.999,90.114    c2.789,7.182,7.305,8.254,9.749,8.254c2.444,0,6.96-1.072,9.749-8.254l34.999-90.115c1.821-4.69,1.429-9.48-1.079-13.144    C347.162,496.825,342.838,494.723,337.806,494.723z"
   id="path6" />
		<path
   d="M127.54,190.824c2.412,5.477,7.028,8.746,12.348,8.746c3.644,0,7.257-1.608,10.174-4.526l44.981-44.98    c3.558-3.558,5.13-8.102,4.312-12.466c-0.819-4.362-3.928-8.028-8.532-10.056l-88.467-38.973c-2.233-0.983-4.336-1.482-6.25-1.482    c-3.201,0-5.959,1.415-7.568,3.882c-1.357,2.081-2.454,5.747,0.031,11.389L127.54,190.824z"
   id="path8" />
		<path
   d="M484.46,421.178c-2.412-5.477-7.027-8.746-12.346-8.746c-3.645,0-7.259,1.609-10.177,4.527l-44.981,44.98    c-3.558,3.559-5.13,8.104-4.312,12.466c0.818,4.362,3.929,8.028,8.532,10.055l88.466,38.974c2.233,0.983,4.336,1.482,6.25,1.482    c3.201,0,5.959-1.417,7.568-3.882c1.358-2.083,2.455-5.748-0.03-11.389L484.46,421.178z"
   id="path10" />
		<path
   d="M461.937,195.044c2.918,2.918,6.532,4.526,10.176,4.526c5.319,0,9.934-3.269,12.348-8.746l38.972-88.465    c2.486-5.643,1.389-9.308,0.031-11.389c-1.609-2.467-4.367-3.882-7.568-3.882c-1.914,0-4.017,0.499-6.251,1.483l-88.466,38.97    c-4.604,2.029-7.715,5.694-8.532,10.057c-0.818,4.363,0.754,8.908,4.312,12.466L461.937,195.044z"
   id="path12" />
		<path
   d="M150.063,416.959c-2.918-2.918-6.532-4.527-10.177-4.527c-5.319,0-9.934,3.269-12.346,8.746l-38.972,88.465    c-2.486,5.643-1.389,9.308-0.031,11.39c1.609,2.466,4.368,3.882,7.568,3.882c1.914,0,4.017-0.499,6.251-1.484l88.466-38.972    c4.604-2.028,7.715-5.694,8.532-10.056c0.818-4.362-0.753-8.907-4.312-12.466L150.063,416.959z"
   id="path14" />
		<path
   d="M603.745,296.251l-90.111-34.996c-1.942-0.755-3.896-1.137-5.806-1.137c-7.593,0-13.104,5.921-13.104,14.078l0.001,63.613    c0,8.157,5.511,14.078,13.104,14.078c1.912,0,3.866-0.382,5.806-1.136l90.112-34.999c7.182-2.79,8.254-7.306,8.254-9.751    C612.001,303.558,610.926,299.04,603.745,296.251z"
   id="path16" />
		<path
   d="M104.173,351.886c7.594,0,13.106-5.921,13.106-14.078v-63.613c0-8.157-5.511-14.078-13.106-14.078    c-1.912,0-3.864,0.382-5.805,1.136L8.255,296.251C1.073,299.04,0,303.556,0,306.001c0,2.444,1.072,6.96,8.255,9.752l90.111,34.996    C100.308,351.503,102.261,351.886,104.173,351.886z"
   id="path18" />
	</g>
</g>
<g
   id="g24">
</g>
<g
   id="g26">
</g>
<g
   id="g28">
</g>
<g
   id="g30">
</g>
<g
   id="g32">
</g>
<g
   id="g34">
</g>
<g
   id="g36">
</g>
<g
   id="g38">
</g>
<g
   id="g40">
</g>
<g
   id="g42">
</g>
<g
   id="g44">
</g>
<g
   id="g46">
</g>
<g
   id="g48">
</g>
<g
   id="g50">
</g>
<g
   id="g52">
</g>
<path
   style="fill:#ffffff;stroke-width:0.701032"
   d="M 284.96953,460.84571 C 247.49683,455.80476 211.06636,435.72591 186.74188,406.707 147.8028,360.253 138.8943,297.01868 163.54311,242.03752 c 12.47978,-27.83714 34.88708,-53.28165 60.8433,-69.09034 25.39424,-15.46642 51.95031,-22.92632 81.61408,-22.92632 14.20156,0 25.82413,1.39268 38.38635,4.59966 27.39676,6.99406 51.40642,20.70812 71.70675,40.95814 24.28738,24.2272 38.9617,53.18335 44.59071,87.9888 0.9111,5.63356 1.24714,11.67806 1.24714,22.43303 0,16.66214 -0.93886,24.18769 -4.93876,39.58733 -15.82512,60.92663 -68.30506,107.26719 -130.55132,115.27873 -10.65641,1.37156 -31.19796,1.36123 -41.47183,-0.0208 z"
   id="path170" /><path
   style="fill:#ffc83d;stroke-width:0.701032;fill-opacity:1"
   d="m 269.28377,116.04246 c -5.73883,-2.0456 -9.61321,-8.35412 -8.56435,-13.94502 0.60541,-3.227126 35.92079,-94.1065271 37.70624,-97.0319537 1.70394,-2.7918765 4.5559,-4.36445425 7.9152,-4.36445425 3.03596,0 5.48083,1.49238425 7.29667,4.45398655 1.89556,3.0916343 37.17109,94.1329354 37.66133,97.1987214 0.94643,5.91862 -3.31095,12.29816 -9.32086,13.96702 -4.32512,1.20102 -69.24129,0.95249 -72.69423,-0.2783 z"
   id="path209" /><path
   style="fill:#ffffff;stroke-width:0.701032"
   d="m 134.3656,197.58888 c -1.67138,-0.82731 -3.77658,-2.63939 -4.68235,-4.03038 -2.10227,-3.22846 -40.803086,-91.14241 -41.857517,-95.08481 -0.974591,-3.643888 0.02369,-6.515541 3.191719,-9.181259 4.045969,-3.404459 4.947924,-3.09756 52.694118,17.929719 23.90519,10.52777 44.85042,19.78856 46.54496,20.57953 6.77533,3.16256 10.1013,9.14478 8.48833,15.26744 -0.72577,2.75497 -3.57053,5.86278 -25.82137,28.20915 -13.75315,13.8122 -26.17615,25.72098 -27.60667,26.46396 -3.39558,1.76359 -7.18573,1.71051 -10.95122,-0.15335 z"
   id="path248" /><path
   style="fill:#ffffff;stroke-width:0.701032"
   d="M 53.979468,333.08824 C 28.532004,323.16323 6.7165488,314.51436 5.5006783,313.86853 c -2.6658108,-1.416 -5.15016228,-5.21141 -5.15016228,-7.86804 0,-2.88263 2.57504378,-6.51444 5.77716938,-8.14804 1.5574632,-0.79456 23.4777726,-9.46003 48.7117966,-19.25659 48.706318,-18.90918 49.968608,-19.29605 54.802788,-16.7962 2.87738,1.48796 6.24778,5.6258 6.72633,8.25795 0.22933,1.26134 0.32375,18.24912 0.20984,37.75063 l -0.20712,35.45729 -2.00904,2.63338 c -2.9819,3.90859 -5.727,5.31976 -10.25902,5.27385 -3.3273,-0.0337 -10.19626,-2.512 -50.123792,-18.08452 z"
   id="path287" /><path
   style="fill:#ffffff;stroke-width:0.701032"
   d="m 91.017452,522.70855 c -3.160415,-2.65932 -4.165803,-5.53927 -3.197552,-9.15946 1.053368,-3.93842 39.77296,-91.8932 41.87532,-95.12329 3.20476,-4.92381 10.44567,-6.85532 15.6216,-4.16705 1.43052,0.74298 13.85352,12.65176 27.60667,26.46396 21.735,21.82831 25.10716,25.49854 25.7812,28.05999 1.63153,6.20005 -1.69053,12.26229 -8.44816,15.41659 -1.69454,0.79098 -22.63977,10.05177 -46.54496,20.57954 -47.746194,21.02728 -48.648149,21.33417 -52.694118,17.92972 z"
   id="path326" /><path
   style="fill:#ffffff;stroke-width:0.701032"
   d="m 301.68313,610.23152 c -1.02506,-0.55676 -2.49253,-2.04258 -3.26106,-3.30183 -1.92899,-3.16074 -37.22841,-94.20852 -37.7223,-97.29714 -0.9441,-5.90408 3.31997,-12.28533 9.32321,-13.95233 3.6585,-1.01591 68.29652,-1.01591 71.95502,0 6.00991,1.66886 10.26729,8.04839 9.32086,13.96701 -0.49923,3.122 -35.78377,94.13673 -37.71666,97.28826 -2.49809,4.07307 -7.77651,5.53519 -11.89907,3.29603 z"
   id="path365" /><path
   style="fill:#ffffff;stroke-width:0.701032"
   d="m 510.00081,523.04715 c -7.06045,-2.81833 -86.82472,-38.18032 -89.95895,-39.88161 -5.72306,-3.10654 -8.299,-8.49146 -6.79406,-14.2028 0.7365,-2.79504 3.47814,-5.79253 25.82968,-28.24003 13.75316,-13.8122 26.17616,-25.72098 27.60668,-26.46396 5.17488,-2.68772 12.41302,-0.7574 15.62523,4.16705 1.88604,2.89138 40.45413,90.25462 41.74158,94.55172 1.08126,3.60892 10e-4,7.14872 -2.93423,9.61893 -2.56133,2.15522 -6.45071,2.31292 -11.11593,0.4507 z"
   id="path404" /><path
   style="fill:#ffffff;stroke-width:0.701032"
   d="m 502.63998,350.39896 c -2.46779,-1.36488 -4.65646,-3.66706 -6.027,-6.33955 -1.25913,-2.45526 -1.33384,-4.5829 -1.33384,-37.98536 0,-23.29626 0.25473,-36.05859 0.74563,-37.35788 0.91343,-2.4176 3.86341,-5.61542 6.40514,-6.94329 4.73663,-2.47453 6.12128,-2.04892 54.73158,16.82298 25.23403,9.79656 47.15434,18.46203 48.7118,19.25659 3.20213,1.6336 5.77717,5.26541 5.77717,8.14804 0,2.88263 -2.57504,6.51444 -5.77717,8.14804 -1.55746,0.79456 -23.47777,9.46002 -48.7118,19.25659 -39.12888,15.19094 -46.41267,17.8088 -49.49974,17.79062 -1.99084,-0.0117 -4.25064,-0.37027 -5.02177,-0.79678 z"
   id="path443" /><path
   style="fill:#ffffff;stroke-width:0.701032"
   d="m 466.53683,197.70999 c -1.34949,-0.72664 -13.70619,-12.62148 -27.45935,-26.43298 -27.56665,-27.68361 -27.50729,-27.60522 -25.77363,-34.04356 1.16494,-4.32625 2.88216,-6.34158 7.45548,-8.74975 2.23635,-1.1776 23.62488,-10.74965 47.53008,-21.27123 47.74337,-21.013662 48.65081,-21.32226 52.69412,-17.920039 3.16914,2.666654 4.16638,5.537091 3.19085,9.184462 -1.06134,3.968277 -39.75619,91.865397 -41.86499,95.098277 -3.20897,4.91948 -10.6786,6.87766 -15.77256,4.13482 z"
   id="path482" /><path
   style="fill:#ffc83d;fill-opacity:1;stroke-width:0.701032"
   d="m 133.78646,196.57604 c -1.60314,-1.05526 -3.54357,-3.04999 -4.31206,-4.43276 -1.69001,-3.04085 -23.69397,-52.56639 -34.042342,-76.62099 -8.479749,-19.711033 -8.765961,-21.111807 -5.069026,-24.808742 4.689735,-4.689736 3.251981,-5.205045 79.283408,28.416162 15.55018,6.87632 23.15517,10.60832 24.79497,12.16768 4.38503,4.16989 5.47285,9.43213 2.84195,13.74762 -1.61929,2.65614 -34.98704,36.60493 -45.74805,46.54468 -6.79008,6.27187 -6.95997,6.37566 -10.86599,6.63824 -3.40445,0.22886 -4.38208,-0.006 -6.88286,-1.65189 z"
   id="path946" /><path
   style="fill:#ffc83d;fill-opacity:1;stroke-width:0.701032"
   d="M 90.783651,346.7218 C 72.417172,339.95753 11.322634,316.04385 6.2118412,313.61862 c -2.8408899,-1.34809 -5.1602931,-4.90039 -5.1602931,-7.90328 0,-1.61564 0.7180344,-2.96869 2.6288702,-4.95379 2.8741414,-2.98584 0.2801357,-1.88995 53.4536937,-22.5826 31.990497,-12.4492 44.194748,-16.74179 48.080638,-16.91134 3.29211,-0.14365 7.19451,2.36502 9.46105,6.08206 1.27391,2.08915 1.33989,4.00301 1.34238,38.93517 l 0.003,36.73801 -1.83378,2.40421 c -4.83064,6.33329 -9.08372,6.56859 -23.403377,1.29474 z"
   id="path985" /><path
   style="fill:#ffc83d;fill-opacity:1;stroke-width:0.701032"
   d="m 90.363032,521.28743 c -3.696935,-3.69693 -3.410723,-5.0977 5.069026,-24.80874 11.668212,-27.12256 32.459092,-73.81272 34.251402,-76.91854 2.35205,-4.07576 6.46577,-6.1997 11.24079,-5.80372 3.59325,0.29798 4.01672,0.56374 10.6257,6.66835 10.74972,9.92936 44.11527,43.87695 45.73341,46.53119 2.6309,4.31549 1.54308,9.57773 -2.84195,13.74763 -1.6398,1.55935 -9.24479,5.29136 -24.79497,12.16767 -60.4061,26.71167 -70.270853,30.79967 -74.322568,30.79967 -1.996373,0 -3.1146,-0.53727 -4.96084,-2.38351 z"
   id="path1024" /><path
   style="fill:#ffc83d;fill-opacity:1;stroke-width:0.701032"
   d="m 300.59807,608.67108 c -1.52412,-1.43642 -3.88507,-6.57397 -9.26202,-20.15467 -9.16688,-23.153 -27.53346,-71.03026 -29.14111,-75.96385 -2.22214,-6.81939 0.0154,-12.49218 6.16569,-15.63199 2.88579,-1.47323 3.56439,-1.50027 37.63986,-1.50027 34.07547,0 34.75407,0.027 37.63986,1.50027 6.15279,3.14107 8.38981,8.81618 6.16182,15.63199 -3.10316,9.49306 -32.51418,85.20497 -35.78214,92.11285 -2.06176,4.35821 -4.34807,5.93351 -8.61162,5.93351 -2.05291,0 -3.2915,-0.4964 -4.81034,-1.92784 z"
   id="path1063" /><path
   style="fill:#ffc83d;fill-opacity:1;stroke-width:0.701032"
   d="m 287.42314,460.80054 c -39.81875,-5.0832 -78.03409,-26.45963 -102.77751,-57.49043 -18.7427,-23.50529 -30.38473,-51.73571 -33.65267,-81.60341 -1.15327,-10.54048 -0.41804,-31.88564 1.44652,-41.99491 6.08134,-32.97191 20.83434,-60.94745 44.54786,-84.47436 24.6218,-24.42805 55.21703,-39.25833 90.4358,-43.83653 8.5154,-1.10694 31.00811,-0.9166 39.87786,0.33746 34.07849,4.81825 64.30581,19.99142 88.76152,44.55551 28.25374,28.37894 44.19619,64.83821 45.36556,103.74785 0.63742,21.20964 -1.4563,35.81222 -7.94062,55.38153 -15.17642,45.80157 -52.46784,83.0235 -98.60147,98.41774 -8.45621,2.82173 -20.91464,5.67894 -29.23821,6.70548 -5.50367,0.67876 -33.44314,0.86446 -38.22464,0.25407 z"
   id="path1102" /><path
   style="fill:#ffc83d;fill-opacity:1;stroke-width:0.701032"
   d="m 500.53689,518.493 c -15.55045,-6.72554 -65.32135,-28.83224 -74.3094,-33.00594 -9.75629,-4.53045 -12.97199,-7.8741 -12.96647,-13.48242 0.001,-1.46502 0.66492,-3.76781 1.47441,-5.11729 1.89836,-3.16473 48.5665,-49.81503 51.8014,-51.78159 5.17965,-3.14883 12.60164,-1.05388 15.78102,4.45439 1.76632,3.06013 25.90557,57.26052 35.65299,80.05242 3.32784,7.78133 6.05062,14.97381 6.05062,15.9833 0,2.38393 -1.68439,5.5992 -3.65714,6.98097 -3.16673,2.21807 -7.15657,1.39628 -19.82743,-4.08384 z"
   id="path1141" /><path
   style="fill:#ffc83d;fill-opacity:1;stroke-width:0.701032"
   d="m 500.78803,348.43724 c -5.01722,-4.1356 -4.87797,-2.90937 -4.86677,-42.85927 0.0113,-40.12627 -0.27032,-37.83941 5.20393,-42.26405 2.14833,-1.73642 3.27997,-2.14974 5.60826,-2.04836 3.93845,0.1715 16.03135,4.42077 48.13342,16.91339 53.17356,20.69265 50.57955,19.59676 53.45369,22.5826 3.63239,3.77355 3.63239,6.71079 0,10.46097 -2.75917,2.84865 -8.149,5.10964 -59.76298,25.07018 -40.60101,15.70151 -42.78174,16.25592 -47.76955,12.14454 z"
   id="path1180" /><path
   style="fill:#ffc83d;fill-opacity:1;stroke-width:0.701032"
   d="m 467.34689,197.64469 c -2.06349,-0.82675 -48.94323,-47.57532 -51.90518,-51.75995 -3.87058,-5.46831 -2.14144,-12.41283 3.98463,-16.00294 5.33075,-3.12403 71.98305,-32.660181 86.84044,-38.48228 9.72145,-3.809499 12.13972,-3.91742 15.37117,-0.685972 3.68863,3.688628 3.40043,5.124628 -4.90931,24.460972 -11.49509,26.74853 -32.62004,74.16278 -34.46995,77.3667 -2.74401,4.75242 -9.77884,7.16005 -14.9118,5.10347 z"
   id="path1219" /></svg>
